Coordinates
version=1
nRows=13
nColumns=36
inDegrees=yes

Units are S.I. units (second, meters, Newtons, ...)
If the header above contains a line with 'inDegrees', this indicates whether rotational values are in degrees (yes) or radians (no).

endheader
time	pelvis_tilt	pelvis_list	pelvis_rotation	pelvis_tx	pelvis_ty	pelvis_tz	hip_flexion_r	hip_adduction_r	hip_rotation_r	knee_angle_r	knee_angle_r_beta	ankle_angle_r	subtalar_angle_r	mtp_angle_r	hip_flexion_l	hip_adduction_l	hip_rotation_l	knee_angle_l	knee_angle_l_beta	ankle_angle_l	subtalar_angle_l	mtp_angle_l	lumbar_extension	lumbar_bending	lumbar_rotation	arm_flex_r	arm_add_r	arm_rot_r	elbow_flex_r	pro_sup_r	arm_flex_l	arm_add_l	arm_rot_l	elbow_flex_l	pro_sup_l
      4.23750000	      7.23511757	     -0.85992960	     -0.20513074	      0.11218215	      0.93982354	     -0.06248552	     -0.91564534	     -3.91044396	     -1.00797259	      6.31002444	      0.11013070	      4.38127643	    -13.79248429	     -7.49999987	     -2.95206992	     -4.84963212	      2.19858609	      9.26747292	      0.16174792	      7.11839897	    -14.89757550	     -7.49999987	    -13.93306927	      1.96501293	      0.13250607	    361.04002020	    -16.06244127	    361.92018297	     33.78737188	     66.54214824	      0.05787152	    -15.94353164	     12.02779447	     23.67420386	     56.33402566
      4.24166670	      7.28357321	     -0.86855583	     -0.14079489	      0.11159148	      0.94104891	     -0.06245813	     -0.93776203	     -3.89094741	     -0.84885577	      6.31107544	      0.11014905	      4.27886928	    -14.01336119	     -7.49999987	     -2.93830388	     -4.86551345	      2.38694775	      9.26818466	      0.16176034	      6.81793764	    -15.31879187	     -7.49999987	    -13.96056525	      2.02138122	      0.06154160	    360.89405663	    -15.74547814	    361.14475025	     32.97155456	     66.67216066	     -0.09012137	    -15.75777946	     12.46697739	     22.83702143	     56.09284453
      4.24583330	      7.27180253	     -0.87763226	     -0.05185141	      0.11030828	      0.93887935	     -0.06268440	     -0.84682929	     -3.86102500	     -0.55646050	      6.39675522	      0.11164444	      4.02033769	    -14.47531894	     -7.49999987	     -2.78687613	     -4.88479128	      2.48986447	      9.39514498	      0.16397621	      6.72793751	    -15.49099456	     -7.49999987	    -13.95002406	      2.09512447	      0.03082935	    360.83635829	    -15.54589520	    360.77146733	     31.92011298	     66.71857629	     -0.15933592	    -15.53932978	     13.06263178	     21.90252427	     55.89503739
      4.25000000	      7.34344081	     -0.89344909	      0.04157898	      0.11035118	      0.93938706	     -0.06295962	     -0.85924747	     -3.84269885	     -0.36677336	      6.51142585	      0.11364582	      3.86458931	    -14.57070767	     -7.49999987	     -2.71458446	     -4.89975735	      2.58216160	      9.57301115	      0.16708056	      6.79608547	    -15.46232921	     -7.49999987	    -14.14435318	      2.16205658	     -0.05703228	    360.88555331	    -15.38933896	    360.68661037	     30.81513342	     66.79657712	     -0.38738601	    -15.34322758	     13.28899067	     21.37461110	     55.48764546
      4.25416670	      7.35838931	     -0.89534801	      0.14470823	      0.10984710	      0.93636926	     -0.06377607	     -0.75630591	     -3.84429596	     -0.21795537	      6.66340042	      0.11629828	      3.55121294	    -14.91764967	     -7.49999987	     -2.48095697	     -4.89958323	      2.62130633	      9.90433746	      0.17286330	      6.81852697	    -15.44597234	     -7.49999987	    -14.24963929	      2.25292070	     -0.25898925	    360.96943799	    -15.34960186	    361.11005385	     29.85261312	     65.72662803	     -0.71807182	    -15.11634577	     13.68235572	     20.87590582	     53.69349377
      4.25833330	      7.36743841	     -0.86082394	      0.25896631	      0.10963281	      0.94097552	     -0.06223405	     -0.70394810	     -3.87269667	     -0.13856412	      6.77384298	      0.11822586	      3.50998704	    -14.84523833	     -7.49999987	     -2.39620496	     -4.88308872	      2.63322604	     10.01118787	      0.17472819	      6.76859211	    -15.39788402	     -7.49999987	    -14.49858591	      2.27172946	     -0.28704288	    360.64992900	    -15.29155141	    361.10816033	     29.71255898	     65.71173778	     -1.01070606	    -14.99614227	     13.70989625	     20.80965129	     53.69222781
      4.26250000	      7.39038969	     -0.83510430	      0.32308453	      0.10965335	      0.93534334	     -0.06235962	     -0.62641937	     -3.88566920	     -0.06976582	      6.85247370	      0.11959823	      3.25973295	    -15.24905987	     -7.49999987	     -2.21972829	     -4.85324408	      2.63483675	     10.32625541	      0.18022716	      6.70085533	    -15.53884933	     -7.49999987	    -14.45545280	      2.24830989	     -0.32200048	    360.73099246	    -14.89222961	    360.10385579	     28.14397379	     65.14487423	     -1.09923441	    -14.66910128	     13.63903940	     19.71773577	     53.56608636
      4.26666670	      7.39860521	     -0.79828847	      0.37705944	      0.10897885	      0.93810785	     -0.06356248	     -0.53613146	     -3.93049128	      0.02740278	      7.00864575	      0.12232394	      3.07376029	    -15.48425520	     -7.49999987	     -2.09648391	     -4.84298764	      2.68941438	     10.44923123	      0.18237349	      6.56061400	    -15.60215657	     -7.49999987	    -14.49007027	      2.28666721	     -0.37375843	    360.64828427	    -14.73985761	    359.67325126	     27.23740941	     65.13847664	     -1.27678469	    -14.38999568	     13.63183546	     19.13952236	     53.05478787
      4.27083330	      7.38011832	     -0.76760869	      0.41973531	      0.10897282	      0.93705898	     -0.06324536	     -0.43761275	     -3.97020430	      0.14072112	      7.16447561	      0.12504369	      2.89830466	    -15.87418838	     -7.49999987	     -1.93164924	     -4.83778038	      2.68955895	     10.59389570	      0.18489836	      6.61552775	    -15.55775445	     -7.49999987	    -14.46733763	      2.31065972	     -0.39422915	    360.41811303	    -14.55865059	    359.22257610	     26.51122165	     64.77133757	     -1.54873877	    -14.13060013	     13.24699646	     18.69931994	     53.11229079
      4.27500000	      7.34939204	     -0.72027301	      0.46294728	      0.10935509	      0.93464959	     -0.06319363	     -0.28962541	     -4.05786762	      0.13764184	      7.31543295	      0.12767839	      2.84378742	    -16.24164161	     -7.49999987	     -1.75526189	     -4.79421534	      2.65165046	     10.73469680	      0.18735580	      6.63213848	    -15.56527954	     -7.49999987	    -14.40526473	      2.35067110	     -0.35847477	    360.18077857	    -14.31814549	    358.34678629	     25.79957195	     64.42519905	     -1.74569477	    -13.81269347	     12.63758164	     18.13985853	     53.42934263
      4.27916670	      7.25947933	     -0.67304933	      0.46032357	      0.10963712	      0.93336994	     -0.06358170	     -0.05490645	     -4.15824720	      0.22286468	      7.49774618	      0.13086036	      2.73690288	    -16.61027342	     -7.49999987	     -1.54643168	     -4.72214008	      2.57402452	     10.86140349	      0.18956725	      6.81192833	    -15.35063666	     -7.49999987	    -14.18755944	      2.33903490	     -0.33546950	    359.96029733	    -14.13106817	    357.95079551	     24.94999703	     64.24578334	     -2.06826248	    -13.55113610	     12.27057675	     17.68177185	     53.30970535
      4.28333330	      7.21217546	     -0.65169620	      0.51417259	      0.10884824	      0.93109600	     -0.06460738	      0.20089147	     -4.23480732	      0.30297748	      7.78944368	      0.13595144	      2.77044522	    -17.00725318	     -7.49999987	     -1.33475247	     -4.64783323	      2.57525068	     11.06351686	      0.19309480	      6.93366106	    -15.35791580	     -7.49999987	    -14.08894691	      2.42885474	     -0.21824581	    359.66835292	    -13.93884279	    356.60139952	     24.38946425	     64.35173558	     -2.17559884	    -13.27979529	     11.83616428	     17.26735328	     53.21191127
      4.28750000	      7.04285509	     -0.61793570	      0.51870929	      0.10901962	      0.93130241	     -0.06530454	      0.60198412	     -4.32125140	      0.32579902	      8.10944610	      0.14153653	      2.72330403	    -17.43550229	     -7.49999987	     -1.03907556	     -4.56504389	      2.57095074	     11.22286576	      0.19587596	      7.01779338	    -15.36686928	     -7.49999987	    -13.75805104	      2.47952067	     -0.28199802	    359.57340807	    -13.82401267	    356.69598231	     23.49819478	     64.72396579	     -2.51284191	    -13.04081175	     11.12983028	     16.91189727	     52.87169780
